<?xml version="1.0" encoding="UTF-8" standalone="no"?>
<!-- Created with Inkscape (http://www.inkscape.org/) -->

<svg
   width="512mm"
   height="512mm"
   viewBox="0 0 512 512"
   version="1.1"
   id="svg912"
   xmlns:xlink="http://www.w3.org/1999/xlink"
   xmlns="http://www.w3.org/2000/svg"
   xmlns:svg="http://www.w3.org/2000/svg">
  <defs
     id="defs909">
    <linearGradient
       id="linearGradient8953">
      <stop
         style="stop-color:#62aeef;stop-opacity:1"
         offset="0"
         id="stop8949" />
      <stop
         style="stop-color:#98c379;stop-opacity:1"
         offset="1"
         id="stop8951" />
    </linearGradient>
    <rect
       x="170.3324"
       y="215.20238"
       width="97.805679"
       height="92.387657"
       id="rect201173" />
    <linearGradient
       xlink:href="#linearGradient8953"
       id="linearGradient8955"
       x1="17.036255"
       y1="86.647202"
       x2="95.337952"
       y2="10.72485"
       gradientUnits="userSpaceOnUse"
       gradientTransform="matrix(6.4812105,0,0,6.4812105,-92.500235,-49.625295)" />
    <rect
       x="170.3324"
       y="215.20238"
       width="97.805679"
       height="92.387657"
       id="rect212985" />
  </defs>
  <g
     id="layer1"
     transform="translate(-16.875885,-9.0537109)">
    <g
       id="g977"
       transform="matrix(0.78125,0,0,0.78125,59.6916,57.980499)">
      <circle
         style="fill:url(#linearGradient8955);fill-opacity:1;stroke-width:1.71482"
         id="path999"
         cx="272.87589"
         cy="265.05371"
         r="256" />
      <g
         aria-label=""
         transform="matrix(6.5439673,0,0,6.5439673,-972.6507,-1313.6017)"
         id="text212983"
         style="font-size:40px;line-height:1.25;white-space:pre;shape-inside:url(#rect212985);fill:#ffffff">
        <path
           d="m 203.88672,229.89062 q 1.09375,1.09375 1.64062,2.5 0.54688,1.36719 0.54688,2.8125 0,1.44532 -0.54688,2.85157 -0.54687,1.36718 -1.64062,2.46093 l -13.55469,13.55469 -13.55469,-13.55469 q -1.09375,-1.09375 -1.64062,-2.46093 -0.54688,-1.40625 -0.54688,-2.85157 0,-1.44531 0.54688,-2.8125 0.54687,-1.40625 1.64062,-2.5 1.09375,-1.09375 2.46094,-1.64062 1.40625,-0.54688 2.85156,-0.54688 1.44532,0 2.8125,0.54688 1.36719,0.54687 2.5,1.64062 l 1.75782,1.75782 q 0.46875,0.50781 1.17187,0.50781 0.70313,0 1.17188,-0.50781 l 1.75781,-1.75782 q 1.13281,-1.09375 2.5,-1.64062 1.36719,-0.54688 2.8125,-0.54688 1.44531,0 2.8125,0.54688 1.40625,0.54687 2.5,1.64062 z m 2.34375,-2.34375 q -1.5625,-1.60156 -3.59375,-2.38281 -1.99219,-0.78125 -4.0625,-0.78125 -2.07031,0 -4.0625,0.78125 -1.99219,0.78125 -3.59375,2.38281 l -0.58594,0.58594 -0.58594,-0.58594 q -1.60156,-1.60156 -3.59375,-2.38281 -1.99218,-0.78125 -4.0625,-0.78125 -2.07031,0 -4.10156,0.78125 -1.99219,0.78125 -3.55469,2.38281 -1.60156,1.5625 -2.42187,3.59375 -0.78125,1.99219 -0.78125,4.0625 0,2.07032 0.78125,4.10157 0.82031,1.99218 2.42187,3.55468 l 14.72657,14.72657 q 0.46875,0.50781 1.17187,0.50781 0.70313,0 1.17188,-0.50781 l 14.72656,-14.72657 q 1.60156,-1.5625 2.38281,-3.55468 0.82031,-2.03125 0.82031,-4.10157 0,-2.07031 -0.82031,-4.0625 -0.78125,-1.99218 -2.38281,-3.59375 z"
           style="font-family:feather;-inkscape-font-specification:feather"
           id="path905" />
      </g>
    </g>
  </g>
</svg>
