<?xml version="1.0" encoding="UTF-8" standalone="no"?>
<!-- Created with Inkscape (http://www.inkscape.org/) -->

<svg
   width="512mm"
   height="512mm"
   viewBox="0 0 512 512"
   version="1.1"
   id="svg912"
   xmlns:xlink="http://www.w3.org/1999/xlink"
   xmlns="http://www.w3.org/2000/svg"
   xmlns:svg="http://www.w3.org/2000/svg">
  <defs
     id="defs909">
    <linearGradient
       id="linearGradient8953">
      <stop
         style="stop-color:#62aeef;stop-opacity:1"
         offset="0"
         id="stop8949" />
      <stop
         style="stop-color:#98c379;stop-opacity:1"
         offset="1"
         id="stop8951" />
    </linearGradient>
    <rect
       x="170.3324"
       y="215.20238"
       width="97.805679"
       height="92.387657"
       id="rect201173" />
    <linearGradient
       xlink:href="#linearGradient8953"
       id="linearGradient8955"
       x1="17.036255"
       y1="86.647202"
       x2="95.337952"
       y2="10.72485"
       gradientUnits="userSpaceOnUse"
       gradientTransform="matrix(6.4812105,0,0,6.4812105,-92.500235,-49.625295)" />
    <rect
       x="170.3324"
       y="215.20238"
       width="97.805679"
       height="92.387657"
       id="rect212985" />
    <rect
       x="170.3324"
       y="215.20238"
       width="97.805679"
       height="92.387657"
       id="rect218847" />
  </defs>
  <g
     id="layer1"
     transform="translate(-16.875885,-9.0537109)">
    <g
       id="g1002"
       transform="matrix(0.78125,0,0,0.78125,59.6916,57.980499)">
      <circle
         style="fill:url(#linearGradient8955);fill-opacity:1;stroke-width:1.71482"
         id="path999"
         cx="272.87589"
         cy="265.05371"
         r="256" />
      <g
         aria-label="î§"
         transform="matrix(6.25,0,0,6.25,-916.69931,-1241.3428)"
         id="text218845"
         style="font-size:40px;line-height:1.25;white-space:pre;shape-inside:url(#rect218847);fill:#ffffff">
        <path
           d="m 197.01172,241.02344 q 0,-1.36719 -0.54688,-2.57813 -0.50781,-1.21094 -1.40625,-2.10937 -0.89843,-0.89844 -2.14843,-1.40625 -1.21094,-0.54688 -2.57813,-0.54688 -1.36719,0 -2.61719,0.54688 -1.21093,0.50781 -2.10937,1.40625 -0.89844,0.89843 -1.44531,2.10937 -0.50782,1.21094 -0.50782,2.57813 0,1.40625 0.50782,2.61718 0.54687,1.21094 1.44531,2.10938 0.89844,0.89844 2.10937,1.44531 1.25,0.50781 2.61719,0.50781 1.36719,0 2.57813,-0.50781 1.25,-0.54687 2.14843,-1.44531 0.89844,-0.89844 1.40625,-2.10938 0.54688,-1.21093 0.54688,-2.61718 z m -3.35938,0 q 0,0.70312 -0.27343,1.32812 -0.23438,0.58594 -0.70313,1.05469 -0.42969,0.42969 -1.05469,0.70312 -0.58593,0.27344 -1.28906,0.27344 -0.70312,0 -1.32812,-0.27344 -0.58594,-0.27343 -1.01563,-0.70312 -0.46875,-0.46875 -0.74219,-1.05469 -0.23437,-0.625 -0.23437,-1.32812 0,-0.66407 0.23437,-1.25 0.27344,-0.625 0.74219,-1.09375 0.42969,-0.46875 1.01563,-0.70313 0.625,-0.27344 1.32812,-0.27344 0.70313,0 1.28906,0.27344 0.625,0.23438 1.05469,0.70313 0.46875,0.46875 0.70313,1.09375 0.27343,0.58593 0.27343,1.25 z m 10.54688,5.70312 q 0.0391,-0.15625 0.11719,-0.23437 0.0781,-0.11719 0.19531,-0.19532 0.15625,-0.11718 0.3125,-0.19531 0.15625,-0.0781 0.35156,-0.0781 h 0.15625 q 1.01563,0 1.91406,-0.39063 0.9375,-0.39062 1.60157,-1.05469 0.70312,-0.70312 1.09375,-1.60156 0.39062,-0.89844 0.39062,-1.95312 0,-1.01563 -0.39062,-1.91407 -0.39063,-0.9375 -1.09375,-1.60156 -0.66407,-0.66406 -1.60157,-1.05469 -0.89843,-0.42968 -1.91406,-0.42968 h -0.27344 q -0.11718,0 -0.27343,0 -0.11719,-0.0391 -0.23438,-0.11719 -0.15625,-0.0781 -0.27344,-0.19531 -0.11718,-0.15625 -0.19531,-0.3125 0,-0.0391 -0.0391,-0.0781 0,-0.0391 0,-0.0781 0,-0.0781 -0.0391,-0.11719 0,-0.0781 -0.0391,-0.15625 0.0391,-0.42969 0.11719,-0.625 0.0781,-0.19531 0.19531,-0.3125 l 0.0781,-0.0781 q 0.74219,-0.74218 1.09375,-1.64062 0.39062,-0.9375 0.39062,-1.91406 0,-0.9375 -0.39062,-1.83594 -0.35156,-0.9375 -1.09375,-1.67969 -0.74219,-0.74219 -1.67969,-1.09375 -0.89844,-0.39062 -1.875,-0.39062 -0.9375,0 -1.875,0.39062 -0.89844,0.35156 -1.64062,1.09375 l -0.0781,0.0781 q -0.11719,0.0781 -0.23437,0.15625 -0.11719,0.0781 -0.23438,0.11718 -0.19531,0.0391 -0.39062,0.0391 -0.15625,0 -0.35157,-0.11719 -0.11718,-0.0391 -0.23437,-0.11719 -0.11719,-0.0781 -0.19531,-0.19531 -0.11719,-0.11719 -0.19532,-0.27344 -0.0391,-0.19531 -0.0391,-0.39062 v -0.15625 q 0,-1.01563 -0.39062,-1.91407 -0.39063,-0.9375 -1.09375,-1.60156 -0.66407,-0.66406 -1.60157,-1.05469 -0.89843,-0.42968 -1.91406,-0.42968 -1.01562,0 -1.95312,0.39062 -0.89844,0.39063 -1.5625,1.09375 -0.70313,0.66406 -1.09375,1.60156 -0.39063,0.89844 -0.39063,1.91407 v 0.27343 q 0,0.15625 -0.0391,0.27344 -0.0391,0.11719 -0.0781,0.23438 -0.0781,0.15625 -0.23437,0.3125 -0.11719,0.11718 -0.3125,0.19531 0,0 -0.0391,0 -0.0391,0 -0.0781,0 -0.0781,0.0391 -0.15625,0.0781 -0.0781,0 -0.15625,0 -0.39062,-0.0391 -0.58594,-0.0781 -0.19531,-0.0781 -0.3125,-0.19531 L 183.22266,227 q -0.70313,-0.74219 -1.64063,-1.09375 -0.9375,-0.35156 -1.875,-0.35156 -0.97656,0 -1.91406,0.35156 -0.89844,0.35156 -1.64063,1.09375 -0.70312,0.74219 -1.09375,1.67969 -0.35156,0.89843 -0.35156,1.875 0,0.9375 0.35156,1.875 0.39063,0.9375 1.09375,1.64062 l 0.0781,0.0781 q 0.11719,0.11718 0.19531,0.23437 0.0781,0.11719 0.11719,0.27344 0.0391,0.15625 0,0.35156 0,0.19531 -0.0781,0.35156 0,0.0391 0,0.0781 0,0 -0.0391,0 -0.0391,0.15625 -0.11719,0.27344 -0.0781,0.11718 -0.19531,0.19531 -0.11719,0.11719 -0.3125,0.19531 -0.15625,0.0781 -0.3125,0.0781 h -0.15625 q -1.01562,0 -1.95312,0.39062 -0.89844,0.39063 -1.5625,1.05469 -0.70313,0.70312 -1.09375,1.60156 -0.39063,0.89844 -0.39063,1.95313 0,1.01562 0.39063,1.95312 0.39062,0.89844 1.09375,1.5625 0.66406,0.70313 1.5625,1.09375 0.9375,0.39063 1.95312,0.39063 h 0.27344 q 0.11719,0 0.23437,0.0391 0.15625,0 0.27344,0.0781 0.15625,0.0781 0.27344,0.23438 0.15625,0.11719 0.23437,0.3125 0,0.0391 0,0.11719 0.0391,0.0781 0.0781,0.15625 -0.0391,0.42968 -0.11719,0.625 -0.0781,0.15625 -0.19531,0.27343 l -0.0781,0.11719 q -0.74218,0.74219 -1.13281,1.67969 -0.35156,0.89844 -0.35156,1.83594 0,0.97656 0.35156,1.91406 0.39063,0.89844 1.13281,1.64062 0.74219,0.74219 1.64063,1.09375 0.9375,0.35157 1.91406,0.35157 0.9375,0 1.83594,-0.35157 0.9375,-0.35156 1.67969,-1.09375 l 0.0781,-0.0781 q 0.11719,-0.11719 0.23438,-0.15625 0.11718,-0.0781 0.23437,-0.11719 0.19531,-0.0781 0.35156,-0.0391 0.19532,0 0.39063,0.0781 0,0 0,0.0391 0.0391,0 0.0781,0 0.15625,0.0391 0.23438,0.11718 0.11719,0.0781 0.23437,0.19532 0.11719,0.15625 0.15625,0.3125 0.0781,0.15625 0.0781,0.3125 v 0.15625 q 0,1.05468 0.39062,1.95312 0.42969,0.9375 1.09375,1.60156 0.66407,0.66407 1.5625,1.05469 0.9375,0.39063 1.95313,0.39063 1.05469,0 1.95312,-0.39063 0.9375,-0.39062 1.60157,-1.05469 0.66406,-0.70312 1.05468,-1.60156 0.39063,-0.89844 0.39063,-1.95312 v -0.23438 q 0,-0.15625 0.0391,-0.27344 0.0391,-0.15625 0.11719,-0.27343 0.0781,-0.15625 0.19531,-0.27344 0.15625,-0.11719 0.3125,-0.19531 0.0781,-0.0391 0.15625,-0.0391 0.0781,-0.0391 0.15625,-0.0391 0.39063,0 0.58594,0.0781 0.19531,0.0781 0.3125,0.19531 l 0.11719,0.11719 q 0.70312,0.70312 1.64062,1.09375 0.9375,0.35156 1.875,0.35156 0.97656,0 1.875,-0.35156 0.9375,-0.39063 1.67969,-1.13282 0.70312,-0.70312 1.05469,-1.64062 0.39062,-0.9375 0.39062,-1.875 0,-0.97656 -0.39062,-1.875 -0.35157,-0.9375 -1.09375,-1.67969 l -0.0781,-0.0781 q -0.0781,-0.0781 -0.15625,-0.19532 -0.0781,-0.15625 -0.11719,-0.27343 -0.0391,-0.15625 -0.0391,-0.35157 0.0391,-0.19531 0.11719,-0.35156 z m -3.20313,-10.19531 q 0,-0.23438 -0.0391,-0.35156 -0.0391,-0.15625 -0.0781,-0.27344 v 0.11719 q 0,0.0781 0,0.11718 0,0.0391 0,0.11719 0.0391,0.0781 0.0391,0.15625 0.0391,0.0391 0.0781,0.11719 0,0.11719 0,0.15625 0,0 0,0 0.3125,0.74219 0.82032,1.28906 0.54687,0.54688 1.21093,0.89844 0.46875,0.23437 0.97657,0.39062 0.50781,0.11719 1.01562,0.11719 h 0.3125 q 0.35156,0 0.625,0.11719 0.3125,0.11719 0.54688,0.35156 0.23437,0.23438 0.35156,0.54688 0.15625,0.27343 0.15625,0.625 0,0.35156 -0.15625,0.66406 -0.11719,0.3125 -0.35156,0.50781 -0.23438,0.23438 -0.54688,0.39063 -0.27344,0.11718 -0.625,0.11718 h -0.15625 q -0.78125,0 -1.52344,0.27344 -0.70312,0.27344 -1.25,0.74219 -0.42968,0.3125 -0.74218,0.74219 -0.3125,0.42968 -0.50782,0.89843 -0.35156,0.74219 -0.39062,1.52344 -0.0391,0.74219 0.15625,1.44531 0.15625,0.54688 0.42969,1.01563 0.27343,0.46875 0.66406,0.89844 l 0.11719,0.11718 q 0.23437,0.23438 0.35156,0.54688 0.15625,0.3125 0.15625,0.625 0,0.3125 -0.15625,0.625 -0.11719,0.3125 -0.35156,0.54687 -0.23438,0.23438 -0.54688,0.39063 -0.3125,0.11719 -0.625,0.11719 -0.3125,0 -0.625,-0.11719 -0.3125,-0.15625 -0.54687,-0.39063 l -0.11719,-0.0781 q -0.58594,-0.58594 -1.28906,-0.89844 -0.66407,-0.3125 -1.40625,-0.39062 -0.54688,-0.0391 -1.09375,0.0781 -0.54688,0.0781 -1.09375,0.3125 -0.70313,0.27344 -1.25,0.82031 -0.54688,0.50782 -0.89844,1.17188 -0.23438,0.46875 -0.39063,0.97656 -0.11718,0.50781 -0.11718,1.05469 v 0.27344 q 0,0.35156 -0.15625,0.66406 -0.11719,0.3125 -0.3125,0.54687 -0.23438,0.19532 -0.54688,0.35157 -0.3125,0.11718 -0.66406,0.11718 -0.3125,0 -0.625,-0.11718 -0.3125,-0.15625 -0.54688,-0.39063 -0.23437,-0.19531 -0.35156,-0.50781 -0.11719,-0.3125 -0.11719,-0.66406 v -0.15625 q -0.0391,-0.82032 -0.3125,-1.52344 -0.27343,-0.70313 -0.78125,-1.28906 -0.35156,-0.39063 -0.82031,-0.70313 -0.42969,-0.3125 -0.9375,-0.50781 -0.70312,-0.3125 -1.48437,-0.35156 -0.74219,-0.0391 -1.44532,0.15625 -0.50781,0.11718 -1.01562,0.39062 -0.46875,0.27344 -0.85938,0.66406 l -0.11718,0.11719 q -0.27344,0.27344 -0.58594,0.39063 -0.27344,0.11718 -0.625,0.11718 -0.3125,0 -0.625,-0.11718 -0.27344,-0.11719 -0.54688,-0.35157 -0.23437,-0.27343 -0.35156,-0.54687 -0.11719,-0.3125 -0.11719,-0.66406 0,-0.3125 0.11719,-0.625 0.11719,-0.3125 0.35156,-0.54688 l 0.11719,-0.0781 q 0.54688,-0.58594 0.85938,-1.28907 0.3125,-0.70312 0.39062,-1.44531 0.0391,-0.54687 -0.0781,-1.09375 -0.0781,-0.54687 -0.27344,-1.05469 -0.3125,-0.74218 -0.85938,-1.28906 -0.50781,-0.54687 -1.17187,-0.89844 -0.46875,-0.23437 -0.97656,-0.35156 -0.50782,-0.11719 -1.01563,-0.15625 h -0.3125 q -0.35156,0 -0.66406,-0.11719 -0.27344,-0.11718 -0.50781,-0.35156 -0.23438,-0.23437 -0.39063,-0.50781 -0.11719,-0.3125 -0.11719,-0.66406 0,-0.35157 0.11719,-0.66407 0.15625,-0.3125 0.39063,-0.50781 0.23437,-0.23437 0.50781,-0.35156 0.3125,-0.15625 0.66406,-0.15625 h 0.15625 q 0.82031,0 1.52344,-0.27344 0.74219,-0.3125 1.28906,-0.78125 0.42969,-0.35156 0.74219,-0.78125 0.3125,-0.46875 0.50781,-1.01562 0.3125,-0.70313 0.35156,-1.44532 0.0391,-0.74218 -0.15625,-1.44531 -0.15625,-0.54687 -0.42968,-1.01562 -0.27344,-0.50782 -0.66407,-0.89844 l -0.11718,-0.11719 q -0.23438,-0.23437 -0.39063,-0.54687 -0.11719,-0.3125 -0.11719,-0.625 0,-0.3125 0.11719,-0.625 0.11719,-0.3125 0.39063,-0.54688 0.23437,-0.27344 0.54687,-0.39062 0.3125,-0.11719 0.625,-0.11719 0.3125,0 0.625,0.11719 0.3125,0.11718 0.54688,0.35156 l 0.11718,0.11719 q 0.58594,0.58593 1.25,0.89843 0.70313,0.3125 1.44532,0.35157 0.46875,0.0391 0.9375,0 0.46875,-0.0781 0.89843,-0.23438 0.11719,0 0.23438,-0.0391 0.11719,-0.0391 0.23437,-0.0781 -0.0391,0 -0.0781,0 -0.0391,0 -0.0781,0 -0.27343,0.0391 -0.42968,0.0781 -0.11719,0 -0.19532,0.0781 h 0.11719 q 0.0391,0 0.0781,0 0.0781,-0.0391 0.11718,-0.0391 0.0781,0 0.15625,-0.0391 0.0781,-0.0391 0.15625,-0.0781 0.11719,0 0.11719,0 0.0391,0 0.0391,0 0.70313,-0.3125 1.25,-0.82031 0.58594,-0.54687 0.89844,-1.17187 0.27344,-0.46875 0.39063,-0.97657 0.11718,-0.50781 0.11718,-1.05468 v -0.3125 q 0,-0.3125 0.11719,-0.625 0.15625,-0.3125 0.39063,-0.54688 0.23437,-0.23437 0.50781,-0.35156 0.3125,-0.11719 0.66406,-0.11719 0.35156,0 0.625,0.11719 0.3125,0.11719 0.54688,0.35156 0.23437,0.23438 0.35156,0.54688 0.15625,0.3125 0.15625,0.625 v 0.15625 q 0,0.82031 0.23437,1.52343 0.27344,0.70313 0.74219,1.28907 0.35156,0.39062 0.74219,0.70312 0.42969,0.3125 0.9375,0.54688 0.70312,0.3125 1.44531,0.35156 0.78125,0.0391 1.52344,-0.15625 0.50781,-0.15625 0.97656,-0.42969 0.50781,-0.27344 0.89844,-0.66406 l 0.11719,-0.11719 q 0.27343,-0.23437 0.54687,-0.35156 0.3125,-0.11719 0.625,-0.11719 0.35156,0 0.625,0.11719 0.3125,0.11719 0.58594,0.35156 0.23437,0.23438 0.35156,0.54688 0.11719,0.3125 0.11719,0.625 0,0.35156 -0.11719,0.66406 -0.11719,0.27344 -0.35156,0.50781 l -0.11719,0.11719 q -0.54687,0.58594 -0.85937,1.28906 -0.3125,0.70313 -0.39063,1.44531 -0.0391,0.46875 0,0.9375 0.0781,0.42969 0.23438,0.89844 0,0.11719 0.0391,0.23438 0.0391,0.0781 0.0781,0.19531 0,-0.0391 0,-0.0781 0,-0.0391 0,-0.0781 z"
           style="font-family:feather;-inkscape-font-specification:feather"
           id="path984" />
      </g>
    </g>
  </g>
</svg>
