<?xml version="1.0" encoding="UTF-8" standalone="no"?>
<!-- Created with Inkscape (http://www.inkscape.org/) -->

<svg
   width="512mm"
   height="512mm"
   viewBox="0 0 512 512"
   version="1.1"
   id="svg912"
   xmlns:xlink="http://www.w3.org/1999/xlink"
   xmlns="http://www.w3.org/2000/svg"
   xmlns:svg="http://www.w3.org/2000/svg">
  <defs
     id="defs909">
    <linearGradient
       id="linearGradient8953">
      <stop
         style="stop-color:#62aeef;stop-opacity:1"
         offset="0"
         id="stop8949" />
      <stop
         style="stop-color:#98c379;stop-opacity:1"
         offset="1"
         id="stop8951" />
    </linearGradient>
    <rect
       x="170.3324"
       y="215.20238"
       width="97.805679"
       height="92.387657"
       id="rect201173" />
    <linearGradient
       xlink:href="#linearGradient8953"
       id="linearGradient8955"
       x1="17.036255"
       y1="86.647202"
       x2="95.337952"
       y2="10.72485"
       gradientUnits="userSpaceOnUse"
       gradientTransform="matrix(6.4812105,0,0,6.4812105,-92.500235,-49.625295)" />
  </defs>
  <g
     id="layer1"
     transform="translate(-16.875885,-9.0537109)">
    <g
       id="g1028"
       transform="matrix(0.78125,0,0,0.78125,59.6916,57.980499)">
      <circle
         style="fill:url(#linearGradient8955);fill-opacity:1;stroke-width:1.71482"
         id="path999"
         cx="272.87589"
         cy="265.05371"
         r="256" />
      <g
         aria-label=""
         transform="matrix(6.8230277,0,0,6.8230277,-1025.7648,-1379.5891)"
         id="text201171"
         style="font-size:40px;line-height:1.25;white-space:pre;shape-inside:url(#rect201173);fill:#ffffff">
        <path
           d="m 200.52734,247.35156 q 0.0781,-0.0781 0.15625,-0.15625 0.0781,-0.0781 0.15625,-0.15625 l 4.41407,-4.41406 q 1.67968,-1.71875 2.53906,-3.86719 0.85937,-2.14844 0.85937,-4.41406 0,-2.22656 -0.85937,-4.375 -0.85938,-2.14844 -2.53906,-3.86719 -1.71875,-1.71875 -3.86719,-2.53906 -2.14844,-0.85938 -4.41406,-0.85938 -2.22657,0 -4.375,0.85938 -2.14844,0.82031 -3.86719,2.53906 l -11.25,11.25 q -0.23438,0.23438 -0.35156,0.54688 -0.11719,0.3125 -0.11719,0.625 V 252 l -4.53125,4.53125 q -0.46875,0.46875 -0.46875,1.17187 0,0.70313 0.46875,1.17188 0.50781,0.50781 1.17187,0.50781 0.70313,0 1.21094,-0.50781 l 4.49219,-4.49219 h 13.47656 q 0.35156,0 0.625,-0.11719 0.3125,-0.15625 0.54688,-0.39062 z m -14.49218,0.35156 h 9.41406 l -3.32031,3.32032 h -9.45313 z m 12.73437,-3.32031 h -9.41406 l 8.82812,-8.82812 q 0.46875,-0.50782 0.46875,-1.17188 0,-0.70312 -0.46875,-1.17187 -0.50781,-0.50782 -1.21093,-0.50782 -0.66407,0 -1.13282,0.50782 l -15.50781,15.46875 v -9.45313 l 10.74219,-10.78125 q 1.25,-1.21094 2.77344,-1.79687 1.52343,-0.625 3.125,-0.625 1.60156,0 3.125,0.625 1.5625,0.58593 2.77343,1.79687 1.25,1.25 1.83594,2.77344 0.625,1.52344 0.625,3.125 0,1.60156 -0.625,3.16406 -0.58594,1.52344 -1.83594,2.73438 z"
           style="font-family:feather;-inkscape-font-specification:feather"
           id="path831" />
      </g>
    </g>
  </g>
</svg>
